
<svg id="visual" viewBox="0 0 900 600" width="900" height="600" xmlns="http://www.w3.org/2000/svg" xmlns:xlink="http://www.w3.org/1999/xlink" version="1.1"><path d="M0 109L13.7 142C27.3 175 54.7 241 82 255C109.3 269 136.7 231 163.8 202C191 173 218 153 245.2 143C272.3 133 299.7 133 327 139C354.3 145 381.7 157 409 156C436.3 155 463.7 141 491 137C518.3 133 545.7 139 573 149C600.3 159 627.7 173 654.8 196C682 219 709 251 736.2 252C763.3 253 790.7 223 818 199C845.3 175 872.7 157 886.3 148L900 139L900 0L886.3 0C872.7 0 845.3 0 818 0C790.7 0 763.3 0 736.2 0C709 0 682 0 654.8 0C627.7 0 600.3 0 573 0C545.7 0 518.3 0 491 0C463.7 0 436.3 0 409 0C381.7 0 354.3 0 327 0C299.7 0 272.3 0 245.2 0C218 0 191 0 163.8 0C136.7 0 109.3 0 82 0C54.7 0 27.3 0 13.7 0L0 0Z" fill="#6198ff"></path><path d="M0 397L13.7 398C27.3 399 54.7 401 82 393C109.3 385 136.7 367 163.8 357C191 347 218 345 245.2 337C272.3 329 299.7 315 327 312C354.3 309 381.7 317 409 326C436.3 335 463.7 345 491 337C518.3 329 545.7 303 573 296C600.3 289 627.7 301 654.8 320C682 339 709 365 736.2 362C763.3 359 790.7 327 818 320C845.3 313 872.7 331 886.3 340L900 349L900 137L886.3 146C872.7 155 845.3 173 818 197C790.7 221 763.3 251 736.2 250C709 249 682 217 654.8 194C627.7 171 600.3 157 573 147C545.7 137 518.3 131 491 135C463.7 139 436.3 153 409 154C381.7 155 354.3 143 327 137C299.7 131 272.3 131 245.2 141C218 151 191 171 163.8 200C136.7 229 109.3 267 82 253C54.7 239 27.3 173 13.7 140L0 107Z" fill="#3c80ff"></path><path d="M0 457L13.7 466C27.3 475 54.7 493 82 491C109.3 489 136.7 467 163.8 450C191 433 218 421 245.2 412C272.3 403 299.7 397 327 392C354.3 387 381.7 383 409 391C436.3 399 463.7 419 491 420C518.3 421 545.7 403 573 394C600.3 385 627.7 385 654.8 400C682 415 709 445 736.2 441C763.3 437 790.7 399 818 393C845.3 387 872.7 413 886.3 426L900 439L900 347L886.3 338C872.7 329 845.3 311 818 318C790.7 325 763.3 357 736.2 360C709 363 682 337 654.8 318C627.7 299 600.3 287 573 294C545.7 301 518.3 327 491 335C463.7 343 436.3 333 409 324C381.7 315 354.3 307 327 310C299.7 313 272.3 327 245.2 335C218 343 191 345 163.8 355C136.7 365 109.3 383 82 391C54.7 399 27.3 397 13.7 396L0 395Z" fill="#0066ff"></path><path d="M0 511L13.7 517C27.3 523 54.7 535 82 538C109.3 541 136.7 535 163.8 526C191 517 218 505 245.2 498C272.3 491 299.7 489 327 482C354.3 475 381.7 463 409 465C436.3 467 463.7 483 491 486C518.3 489 545.7 479 573 473C600.3 467 627.7 465 654.8 473C682 481 709 499 736.2 496C763.3 493 790.7 469 818 463C845.3 457 872.7 469 886.3 475L900 481L900 437L886.3 424C872.7 411 845.3 385 818 391C790.7 397 763.3 435 736.2 439C709 443 682 413 654.8 398C627.7 383 600.3 383 573 392C545.7 401 518.3 419 491 418C463.7 417 436.3 397 409 389C381.7 381 354.3 385 327 390C299.7 395 272.3 401 245.2 410C218 419 191 431 163.8 448C136.7 465 109.3 487 82 489C54.7 491 27.3 473 13.7 464L0 455Z" fill="#0059dd"></path><path d="M0 601L13.7 601C27.3 601 54.7 601 82 601C109.3 601 136.7 601 163.8 601C191 601 218 601 245.2 601C272.3 601 299.7 601 327 601C354.3 601 381.7 601 409 601C436.3 601 463.7 601 491 601C518.3 601 545.7 601 573 601C600.3 601 627.7 601 654.8 601C682 601 709 601 736.2 601C763.3 601 790.7 601 818 601C845.3 601 872.7 601 886.3 601L900 601L900 479L886.3 473C872.7 467 845.3 455 818 461C790.7 467 763.3 491 736.2 494C709 497 682 479 654.8 471C627.7 463 600.3 465 573 471C545.7 477 518.3 487 491 484C463.7 481 436.3 465 409 463C381.7 461 354.3 473 327 480C299.7 487 272.3 489 245.2 496C218 503 191 515 163.8 524C136.7 533 109.3 539 82 536C54.7 533 27.3 521 13.7 515L0 509Z" fill="#004cbb"></path></svg>